<?xml version="1.0" ?><svg viewBox="0 0 20.808 22.463" xmlns="http://www.w3.org/2000/svg"><g data-name="Layer 2" id="Layer_2"><g data-name="Layer 1" id="Layer_1-2"><path d="M18.47,15.094c.229,3.139.586,4.59-3.546,4.611a.727.727,0,0,0-.822.772v1.655a.342.342,0,0,1-.683,0V20.477a1.387,1.387,0,0,1,1.5-1.455c1.622,0,2.777-.344,2.874-.855a13.271,13.271,0,0,0-.036-3.247.343.343,0,0,1,.216-.363,15.242,15.242,0,0,0,1.84-.874c.532-.328.259-.635.011-1.007A8.227,8.227,0,0,1,17.815,9.2C17.345-2.16,1.163-2.158.694,9.2c-.18,3.017,2.134,5.588,3.357,8.045a16.063,16.063,0,0,1,.756,4.888.342.342,0,0,1-.683.007,15.75,15.75,0,0,0-.694-4.613C2.127,15-.18,12.307.011,9.2.515-3.042,17.942-3.075,18.5,9.154a8.73,8.73,0,0,0,1.854,3.081C21.738,13.92,19.636,14.572,18.47,15.094Zm-4.912-1.2-2.533-.457L9.563,15.355a.341.341,0,0,1-.542,0L7.559,13.439c-3.661.584-3.065,1.205-2.473-2.473L3.17,9.505a.342.342,0,0,1,0-.543L5.086,7.5C4.5,3.839,3.882,4.436,7.559,5.027c2.158-2.711,1.3-2.723,3.466,0,3.661-.584,3.064-1.2,2.473,2.474l1.916,1.461a.342.342,0,0,1,0,.543L13.5,10.966l.456,2.534a.341.341,0,0,1-.4.4Zm-.362-.759-.406-2.255a.34.34,0,0,1,.129-.332l1.725-1.317L12.919,7.917a.341.341,0,0,1-.129-.332L13.2,5.33l-2.256.406a.34.34,0,0,1-.331-.129L9.292,3.881,7.975,5.607a.341.341,0,0,1-.331.129L5.388,5.33l.406,2.255a.341.341,0,0,1-.129.332L3.94,9.233,5.665,10.55a.34.34,0,0,1,.129.332l-.406,2.255,2.256-.406a.3.3,0,0,1,.06,0,.339.339,0,0,1,.271.134l1.317,1.725,1.317-1.725a.343.343,0,0,1,.331-.129Zm-3.9-1.287a2.617,2.617,0,0,1,0-5.233A2.617,2.617,0,0,1,9.292,11.85Zm0-4.55a1.934,1.934,0,0,0,0,3.867A1.934,1.934,0,0,0,9.292,7.3Z" data-name="mental health" id="mental_health"/></g></g></svg>